custom-analysis
version=1
nRows=5
nColumns=98
inDegrees=no

This file contains tibia displacement and acting force.

Units are S.I. units (seconds, meters, Newtons, ...)
Angles are in degrees.

endheader
time	APT	SIT	knee_angle	aACL_R_force	pACL_R_force	aPCL_R_force	pPCL_R_force	aMCL_R_force	mMCL_R_force	pMCL_R_force	aLCL_R_force	mLCL_R_force	pLCL_R_force	aPCL_L_force	pPCL_L_force	aMCL_L_force	aLCL_L_force	aACL_R_length	pACL_R_length	aPCL_R_length	pPCL_R_length	aMCL_R_length	mMCL_R_length	pMCL_R_length	aLCL_R_length	mLCL_R_length	pLCL_R_length	aPCL_L_length	pPCL_L_length	aMCL_L_length	aLCL_L_length	aACL_R_strain	pACL_R_strain	aPCL_R_strain	pPCL_R_strain	aMCL_R_strain	mMCL_R_strain	pMCL_R_strain	aLCL_R_strain	mLCL_R_strain	pLCL_R_strain	aPCL_L_strain	pPCL_L_strain	aMCL_L_strain	aLCL_L_strain	femur_lat_meniscii_r.femur_lat_r.force.X	femur_lat_meniscii_r.femur_lat_r.force.Y	femur_lat_meniscii_r.femur_lat_r.force.Z	femur_lat_meniscii_r.femur_lat_r.torque.X	femur_lat_meniscii_r.femur_lat_r.torque.Y	femur_lat_meniscii_r.femur_lat_r.torque.Z	femur_lat_meniscii_r.meniscus_lat_r.force.X	femur_lat_meniscii_r.meniscus_lat_r.force.Y	femur_lat_meniscii_r.meniscus_lat_r.force.Z	femur_lat_meniscii_r.meniscus_lat_r.torque.X	femur_lat_meniscii_r.meniscus_lat_r.torque.Y	femur_lat_meniscii_r.meniscus_lat_r.torque.Z	femur_med_meniscii_r.femur_med_r.force.X	femur_med_meniscii_r.femur_med_r.force.Y	femur_med_meniscii_r.femur_med_r.force.Z	femur_med_meniscii_r.femur_med_r.torque.X	femur_med_meniscii_r.femur_med_r.torque.Y	femur_med_meniscii_r.femur_med_r.torque.Z	femur_med_meniscii_r.meniscus_med_r.force.X	femur_med_meniscii_r.meniscus_med_r.force.Y	femur_med_meniscii_r.meniscus_med_r.force.Z	femur_med_meniscii_r.meniscus_med_r.torque.X	femur_med_meniscii_r.meniscus_med_r.torque.Y	femur_med_meniscii_r.meniscus_med_r.torque.Z	femur_med_tibia_r.tibia_upper_r.force.X	femur_med_tibia_r.tibia_upper_r.force.Y	femur_med_tibia_r.tibia_upper_r.force.Z	femur_med_tibia_r.tibia_upper_r.torque.X	femur_med_tibia_r.tibia_upper_r.torque.Y	femur_med_tibia_r.tibia_upper_r.torque.Z	femur_med_tibia_r.femur_med_r.force.X	femur_med_tibia_r.femur_med_r.force.Y	femur_med_tibia_r.femur_med_r.force.Z	femur_med_tibia_r.femur_med_r.torque.X	femur_med_tibia_r.femur_med_r.torque.Y	femur_med_tibia_r.femur_med_r.torque.Z	femur_lat_tibia_r.tibia_upper_r.force.X	femur_lat_tibia_r.tibia_upper_r.force.Y	femur_lat_tibia_r.tibia_upper_r.force.Z	femur_lat_tibia_r.tibia_upper_r.torque.X	femur_lat_tibia_r.tibia_upper_r.torque.Y	femur_lat_tibia_r.tibia_upper_r.torque.Z	femur_lat_tibia_r.femur_lat_r.force.X	femur_lat_tibia_r.femur_lat_r.force.Y	femur_lat_tibia_r.femur_lat_r.force.Z	femur_lat_tibia_r.femur_lat_r.torque.X	femur_lat_tibia_r.femur_lat_r.torque.Y	femur_lat_tibia_r.femur_lat_r.torque.Z	femur_lat_meniscii_force_r	femur_med_meniscii_force_r	femur_lat_tibia_force_r	femur_med_tibia_force_r
      0.11363250	      0.00867397	      0.00829038	     30.67199294	      5.68655044	    -11.79585793	     32.47186786	     72.19386462	      0.00000000	      0.00000000	      0.00000000	      0.00000000	      0.00000000	      0.00000000	      0.00000000	      0.00000000	      0.00000001	      0.00000000	      0.03224962	      0.02514414	      0.03146342	      0.03042996	      0.05742080	      0.05943194	      0.05849205	      0.05350500	      0.05026228	      0.04655273	      0.01525851	      0.01651186	      0.06550154	      0.04489616	      0.04012583	      0.00340961	      0.01183835	      0.01813999	     -0.04341705	     -0.00604674	     -0.00401760	     -0.04416444	     -0.10753682	     -0.11061648	      0.00000079	     -0.32847694	      0.00000060	     -0.00000086	     65.68665227	    304.89936446	     41.05411896	    -24.22287694	      1.64028483	     25.60237325	    -65.68665227	   -304.89936446	    -41.05411896	      9.13410542	     -2.21442066	      2.80365684	    -24.48014680	     72.77948918	     15.11836332	     -4.46677563	      0.57148591	     -9.98922723	     24.48014680	    -72.77948918	    -15.11836332	     -1.16826874	     -0.68614846	      1.41676285	   -147.14967674	   -549.43911896	    119.83926541	    -12.92635548	      3.40847399	     -0.21392641	    147.14967674	    549.43911896	   -119.83926541	     59.83327298	     -2.40633100	     62.40518136	    -23.34670669	    -73.37729788	    -18.65595277	      2.48189444	     -0.81070981	      0.08331209	     23.34670669	     73.37729788	     18.65595277	     -9.46816959	      0.56273810	      9.63487347	    314.58512269	     78.26044047	     79.22967330	    581.28979205
      0.11489059	      0.00879683	      0.00847754	     31.26598414	      4.65131077	    -12.29869519	     36.75848497	     78.25728606	      0.00000000	      0.00000000	      0.00000000	      0.00000000	      0.00000000	      0.00000000	      0.00000000	      0.00000000	      0.00000001	      0.00000000	      0.03222841	      0.02510677	      0.03154642	      0.03047783	      0.05746534	      0.05941774	      0.05842016	      0.05349177	      0.05021147	      0.04646601	      0.01525851	      0.01651186	      0.06550154	      0.04489616	      0.03944163	      0.00191810	      0.01450777	      0.01974151	     -0.04267513	     -0.00628432	     -0.00524179	     -0.04440076	     -0.10843893	     -0.11227329	      0.00000079	     -0.32847694	      0.00000060	     -0.00000086	     64.32917593	    306.24086769	     40.63152405	    -24.09215705	      1.59750594	     24.98646457	    -64.32917593	   -306.24086769	    -40.63152405	      9.15459403	     -2.17124255	      2.98744837	    -21.68139627	     72.04636875	     16.06429622	     -4.86737333	      0.50395542	     -8.83850586	     21.68139627	    -72.04636875	    -16.06429622	     -1.13399579	     -0.63895081	      1.34411380	   -156.48748213	   -552.82543742	    119.98892078	    -12.98035279	      3.60519701	     -0.30592657	    156.48748213	    552.82543742	   -119.98892078	     59.93291974	     -2.58623936	     66.23530267	    -20.47209453	    -63.33952089	    -16.12622020	      2.13903512	     -0.71278619	      0.08588953	     20.47209453	     63.33952089	     16.12622020	     -8.18105151	      0.49493856	      8.44004487	    315.55131542	     76.93389245	     68.49128805	    586.94261852
      0.11614868	      0.00892009	      0.00866816	     31.86353200	      3.66599268	    -12.72756716	     41.55415763	     83.94512835	      0.00000000	      0.00000000	      0.00000000	      0.00000000	      0.00000000	      0.00000000	      0.00000000	      0.00000000	      0.00000001	      0.00000000	      0.03220549	      0.02506826	      0.03162892	      0.03052446	      0.05750887	      0.05940209	      0.05834696	      0.05347781	      0.05015957	      0.04637819	      0.01525851	      0.01651186	      0.06550154	      0.04489616	      0.03870253	      0.00038140	      0.01716085	      0.02130158	     -0.04194996	     -0.00654596	     -0.00648821	     -0.04465022	     -0.10936057	     -0.11395110	      0.00000079	     -0.32847694	      0.00000060	     -0.00000086	     62.12105367	    306.08215376	     38.20954787	    -23.04367609	      1.52347143	     24.00310168	    -62.12105367	   -306.08215376	    -38.20954787	      9.01939510	     -2.07280135	      3.19803658	    -19.34842776	     73.33245450	     17.00286128	     -5.21679284	      0.44923390	     -7.86524727	     19.34842776	    -73.33245450	    -17.00286128	     -1.14410664	     -0.60381165	      1.29353936	   -167.01741335	   -560.03299226	    122.37518345	    -13.17601728	      3.84457210	     -0.39470934	    167.01741335	    560.03299226	   -122.37518345	     61.03790756	     -2.78511517	     70.56498168	    -17.77029432	    -54.61139041	    -13.87300000	      1.83919045	     -0.62191899	      0.09290941	     17.77029432	     54.61139041	     13.87300000	     -7.03917206	      0.43161994	      7.31700190	    314.65104435	     77.72456388	     59.08170149	    597.08245185
      0.11740677	      0.00904334	      0.00886241	     32.46439289	      2.07258391	      0.00000000	     47.57076053	     90.78312917	      0.00000000	      0.00000000	      0.00000000	      0.00000000	      0.00000000	      0.00000000	      0.00000000	      0.00000000	      0.00000001	      0.00000000	      0.03217989	      0.02502751	      0.03171121	      0.03057022	      0.05755139	      0.05938507	      0.05827260	      0.05346312	      0.05010663	      0.04628943	      0.01525851	      0.01651186	      0.06550154	      0.04489616	      0.03787667	     -0.00124463	      0.01980732	      0.02283288	     -0.04124153	     -0.00683068	     -0.00775437	     -0.04491253	     -0.11030043	     -0.11564683	      0.00000079	     -0.32847694	      0.00000060	     -0.00000086	     62.25207835	    309.97623004	     41.97556180	    -24.71221714	      1.55397601	     23.99861321	    -62.25207835	   -309.97623004	    -41.97556180	      9.24274732	     -2.15359088	      3.37143156	    -18.00934933	     73.62931279	     18.94737921	     -6.01296105	      0.41563073	     -7.32567574	     18.00934933	    -73.62931279	    -18.94737921	     -1.09416015	     -0.59980133	      1.28609249	   -178.15874955	   -569.65120639	    124.46979503	    -13.39910380	      4.08856771	     -0.47142502	    178.15874955	    569.65120639	   -124.46979503	     62.06326616	     -2.99097387	     75.14971918	    -16.59195792	    -49.70942425	    -13.04280226	      1.68658594	     -0.58634144	      0.08966128	     16.59195792	     49.70942425	     13.04280226	     -6.58074145	      0.40518754	      6.82669584	    318.93970000	     78.13203916	     54.00402409	    609.70137515
      0.11866486	      0.00916751	      0.00905978	     33.06853283	      1.39003521	      0.00000000	     54.31780996	     97.21685685	      0.00000000	      0.00000000	      0.00000000	      0.00000000	      0.00000000	      0.00000000	      0.00000000	      0.00000000	      0.00000001	      0.00000000	      0.03215221	      0.02498500	      0.03179337	      0.03061524	      0.05759347	      0.05936722	      0.05819769	      0.05344826	      0.05005328	      0.04620038	      0.01525851	      0.01651186	      0.06550154	      0.04489616	      0.03698408	     -0.00294123	      0.02244928	      0.02433890	     -0.04054054	     -0.00712928	     -0.00902991	     -0.04517802	     -0.11124772	     -0.11734817	      0.00000079	     -0.32847694	      0.00000060	     -0.00000086	     60.97518885	    307.66350401	     41.33444531	    -24.38133131	      1.52130131	     23.42262872	    -60.97518885	   -307.66350401	    -41.33444531	      9.13977409	     -2.11871366	      3.50790823	    -15.64372222	     73.03104392	     19.81623921	     -6.38082857	      0.35588652	     -6.35408376	     15.64372222	    -73.03104392	    -19.81623921	     -1.06306070	     -0.55979290	      1.22906284	   -190.17601515	   -580.82313394	    125.10163433	    -13.59548763	      4.33257077	     -0.54633233	    190.17601515	    580.82313394	   -125.10163433	     62.50479717	     -3.21335189	     80.09322123	    -15.62369331	    -45.51939264	    -12.02224503	      1.54522388	     -0.55266920	      0.08588459	     15.62369331	     45.51939264	     12.02224503	     -6.05910213	      0.38279116	      6.42339834	    316.35951341	     77.27187559	     49.60493196	    623.83719717
